<svg width="50" height="50" viewBox="0 0 50 50" fill="none" xmlns="http://www.w3.org/2000/svg">
<path d="M45.8337 44.2702H43.7503V31.2494C43.7503 26.2765 41.7749 21.5074 38.2586 17.9911C34.7423 14.4748 29.9731 12.4993 25.0003 12.4993C20.0275 12.4993 15.2584 14.4748 11.7421 17.9911C8.22577 21.5074 6.25033 26.2765 6.25033 31.2494V44.2702H4.16699C3.31283 44.2702 2.60449 44.9785 2.60449 45.8327C2.60449 46.6869 3.31283 47.3952 4.16699 47.3952H45.8337C46.6878 47.3952 47.3962 46.6869 47.3962 45.8327C47.3962 44.9785 46.6878 44.2702 45.8337 44.2702ZM25.0003 7.81185C24.1462 7.81185 23.4378 7.10352 23.4378 6.24935V4.16602C23.4378 3.31185 24.1462 2.60352 25.0003 2.60352C25.8545 2.60352 26.5628 3.31185 26.5628 4.16602V6.24935C26.5628 7.10352 25.8545 7.81185 25.0003 7.81185ZM10.4191 11.9806C10.0232 11.9806 9.62741 11.8348 9.31491 11.5223L7.23158 9.43893C6.94099 9.1449 6.77803 8.74816 6.77803 8.33477C6.77803 7.92137 6.94099 7.52464 7.23158 7.2306C7.83574 6.62643 8.83574 6.62643 9.43991 7.2306L11.5232 9.31393C12.1274 9.9181 12.1274 10.9181 11.5232 11.5223C11.2107 11.8348 10.8149 11.9806 10.4191 11.9806ZM39.5857 11.9806C39.1899 11.9806 38.7941 11.8348 38.4816 11.5223C38.191 11.2282 38.028 10.8315 38.028 10.4181C38.028 10.0047 38.191 9.60797 38.4816 9.31393L40.5649 7.2306C41.1691 6.62643 42.1691 6.62643 42.7732 7.2306C43.3774 7.83477 43.3774 8.83477 42.7732 9.43893L40.6899 11.5223C40.3774 11.8348 39.9816 11.9806 39.5857 11.9806Z" fill="#FF7AB8"/>
</svg>
