<svg width="50" height="50" viewBox="0 0 50 50" fill="none" xmlns="http://www.w3.org/2000/svg">
<path d="M43.7503 23.9577C43.7503 34.8952 34.8962 43.7494 23.9587 43.7494C13.0212 43.7494 4.16699 34.8952 4.16699 23.9577C4.16699 13.0202 13.0212 4.16602 23.9587 4.16602M45.8337 45.8327L41.667 41.666" stroke="#FF7AB8" stroke-width="2" stroke-linecap="round" stroke-linejoin="round"/>
<path d="M30.2082 12.7711C29.479 10.4794 30.3332 7.62525 32.7498 6.85442C34.0207 6.43775 35.5832 6.79192 36.479 8.02108C37.3123 6.75025 38.9373 6.45858 40.1873 6.85442C42.604 7.62525 43.4582 10.4794 42.729 12.7711C41.5832 16.4169 37.5832 18.3127 36.479 18.3127C35.354 18.3127 31.3957 16.4586 30.2082 12.7711Z" stroke="#FF7AB8" stroke-width="2" stroke-linecap="round" stroke-linejoin="round"/>
</svg>
